<svg width="74" height="74" viewBox="0 0 74 74" fill="none" xmlns="http://www.w3.org/2000/svg">
<g clip-path="url(#clip0_1_3231)">
<path opacity="0.4" d="M57.8242 1.26562H16.8242C7.98766 1.26562 0.824219 8.42907 0.824219 17.2656V57.2656C0.824219 66.1022 7.98766 73.2656 16.8242 73.2656H57.8242C66.6608 73.2656 73.8242 66.1022 73.8242 57.2656V17.2656C73.8242 8.42907 66.6608 1.26562 57.8242 1.26562Z" fill="#62FFBE"/>
<path d="M43.6627 47.2656H31.9857C31.4585 47.2656 31.0037 47.2656 30.6292 47.235C30.2338 47.2027 29.8406 47.1314 29.4622 46.9386C28.8977 46.651 28.4388 46.1921 28.1512 45.6276C28.0487 45.4264 27.9806 45.2211 27.9343 45.0135C27.9092 44.9008 27.8967 44.8444 27.9029 44.7688C27.9079 44.7088 27.9307 44.6304 27.9587 44.5772C27.994 44.51 28.0443 44.4598 28.1448 44.3593L33.8242 38.6798L35.5678 40.4234C35.652 40.5076 35.7525 40.6083 35.8484 40.6897C35.9594 40.7839 36.128 40.9095 36.3607 40.9851C36.6619 41.083 36.9865 41.083 37.2877 40.9851C37.5204 40.9095 37.689 40.7839 37.8 40.6897C37.8959 40.6083 37.9964 40.5077 38.0806 40.4234L41.8242 36.6798V38.2656C41.8242 38.8179 42.2719 39.2656 42.8242 39.2656C43.3765 39.2656 43.8242 38.8179 43.8242 38.2656V34.2656C43.8242 33.7133 43.3765 33.2656 42.8242 33.2656H38.8242C38.2719 33.2656 37.8242 33.7133 37.8242 34.2656C37.8242 34.8179 38.2719 35.2656 38.8242 35.2656H40.41L36.8242 38.8514L35.0806 37.1078C34.9964 37.0236 34.8959 36.9229 34.8 36.8416C34.689 36.7473 34.5204 36.6217 34.2877 36.5461C33.9865 36.4482 33.6619 36.4482 33.3607 36.5461C33.128 36.6217 32.9594 36.7473 32.8484 36.8416C32.7525 36.9229 32.652 37.0235 32.5678 37.1077L29.1899 40.4857C28.7615 40.9141 28.5473 41.1283 28.3634 41.1427C28.2039 41.1553 28.0479 41.0907 27.944 40.969C27.8242 40.8287 27.8242 40.5258 27.8242 39.92V31.4271C27.8242 30.8999 27.8242 30.4451 27.8548 30.0706C27.8871 29.6752 27.9584 29.282 28.1512 28.9036C28.4388 28.3391 28.8977 27.8802 29.4622 27.5926C29.8406 27.3998 30.2338 27.3285 30.6292 27.2962C31.0037 27.2656 31.4585 27.2656 31.9856 27.2656H43.6628C44.1899 27.2656 44.6447 27.2656 45.0192 27.2962C45.4146 27.3285 45.8078 27.3998 46.1862 27.5926C46.7507 27.8802 47.2096 28.3391 47.4972 28.9036C47.69 29.282 47.7613 29.6752 47.7936 30.0706C47.8242 30.4451 47.8242 30.8999 47.8242 31.427V43.1042C47.8242 43.6313 47.8242 44.0861 47.7936 44.4606C47.7613 44.856 47.69 45.2492 47.4972 45.6276C47.2096 46.1921 46.7507 46.651 46.1862 46.9386C45.8078 47.1314 45.4146 47.2027 45.0192 47.235C44.6447 47.2656 44.1899 47.2656 43.6627 47.2656Z" fill="#009959"/>
</g>
<defs>
<clipPath id="clip0_1_3231">
<rect width="73" height="73" fill="white" transform="translate(0.824219 0.765625)"/>
</clipPath>
</defs>
</svg>
