<svg width="23" height="23" viewBox="0 0 23 23" fill="none" xmlns="http://www.w3.org/2000/svg">
<path d="M20.2934 6.9623C20.189 6.57491 19.9849 6.22163 19.7015 5.93762C19.4182 5.6536 19.0654 5.44875 18.6782 5.34346C17.2427 4.9493 11.4998 4.94288 11.4998 4.94288C11.4998 4.94288 5.75781 4.93646 4.32139 5.31321C3.93449 5.42335 3.58239 5.63109 3.29891 5.9165C3.01542 6.20191 2.81007 6.55541 2.70256 6.94305C2.32397 8.37855 2.32031 11.3559 2.32031 11.3559C2.32031 11.3559 2.31664 14.3479 2.69247 15.7687C2.90331 16.5543 3.52206 17.1749 4.30856 17.3866C5.75872 17.7808 11.486 17.7872 11.486 17.7872C11.486 17.7872 17.229 17.7936 18.6645 17.4178C19.0518 17.3127 19.4049 17.1083 19.689 16.8249C19.9731 16.5414 20.1782 16.1887 20.2842 15.8017C20.6637 14.3671 20.6665 11.3907 20.6665 11.3907C20.6665 11.3907 20.6848 8.3978 20.2934 6.9623ZM9.66281 14.1141L9.66739 8.61413L14.4405 11.3687L9.66281 14.1141Z" fill="black"/>
</svg>
