<svg width="75" height="74" viewBox="0 0 75 74" fill="none" xmlns="http://www.w3.org/2000/svg">
<g clip-path="url(#clip0_1_3207)">
<path opacity="0.4" d="M58.0664 1.26562H17.0664C8.22985 1.26562 1.06641 8.42907 1.06641 17.2656V57.2656C1.06641 66.1022 8.22985 73.2656 17.0664 73.2656H58.0664C66.903 73.2656 74.0664 66.1022 74.0664 57.2656V17.2656C74.0664 8.42907 66.903 1.26562 58.0664 1.26562Z" fill="#B1F3FF"/>
<path fill-rule="evenodd" clip-rule="evenodd" d="M43.4324 26.2656H31.3684C30.9298 26.2656 30.5513 26.2656 30.238 26.287C29.9082 26.3095 29.5783 26.359 29.2523 26.494C28.5173 26.7984 27.9332 27.3825 27.6288 28.1176C27.4937 28.4435 27.4442 28.7734 27.4217 29.1032C27.4004 29.4165 27.4004 29.795 27.4004 30.2336V30.2976C27.4004 30.7362 27.4004 31.1147 27.4217 31.428C27.4442 31.7578 27.4937 32.0877 27.6288 32.4137C27.9332 33.1487 28.5173 33.7328 29.2523 34.0372C29.5783 34.1722 29.9082 34.2217 30.238 34.2443C30.5513 34.2656 30.9298 34.2656 31.3684 34.2656H36.4004V37.2656H34.1591C33.3542 37.2656 32.6897 37.2656 32.1486 37.3098C31.5865 37.3557 31.0698 37.4543 30.5844 37.7016C29.8318 38.0851 29.2199 38.697 28.8364 39.4496C28.5891 39.935 28.4905 40.4517 28.4446 41.0138C28.4116 41.4171 28.4032 41.8888 28.4011 42.4361C27.2355 42.8477 26.4004 43.9591 26.4004 45.2656C26.4004 46.9225 27.7435 48.2656 29.4004 48.2656C31.0572 48.2656 32.4004 46.9225 32.4004 45.2656C32.4004 43.9597 31.566 42.8487 30.4012 42.4366C30.4034 41.9081 30.411 41.5068 30.4379 41.1766C30.4738 40.7382 30.5387 40.514 30.6184 40.3576C30.8101 39.9813 31.1161 39.6753 31.4924 39.4836C31.6488 39.4039 31.873 39.339 32.3114 39.3032C32.7615 39.2664 33.3438 39.2656 34.2004 39.2656H36.4004V42.4363C35.2352 42.8481 34.4004 43.9594 34.4004 45.2656C34.4004 46.9225 35.7435 48.2656 37.4004 48.2656C39.0572 48.2656 40.4004 46.9225 40.4004 45.2656C40.4004 43.9594 39.5656 42.8481 38.4004 42.4363V39.2656H40.6004C41.457 39.2656 42.0393 39.2664 42.4894 39.3032C42.9278 39.339 43.152 39.4039 43.3084 39.4836C43.6847 39.6753 43.9907 39.9813 44.1824 40.3576C44.2621 40.514 44.327 40.7382 44.3628 41.1766C44.3898 41.5068 44.3974 41.9081 44.3996 42.4366C43.2348 42.8487 42.4004 43.9597 42.4004 45.2656C42.4004 46.9225 43.7435 48.2656 45.4004 48.2656C47.0572 48.2656 48.4004 46.9225 48.4004 45.2656C48.4004 43.9591 47.5652 42.8477 46.3997 42.4361C46.3975 41.8888 46.3891 41.4171 46.3562 41.0138C46.3103 40.4517 46.2117 39.935 45.9644 39.4496C45.5809 38.697 44.969 38.0851 44.2164 37.7016C43.731 37.4543 43.2143 37.3557 42.6522 37.3098C42.111 37.2656 41.4467 37.2656 40.6418 37.2656H38.4004V34.2656H43.4324C43.871 34.2656 44.2495 34.2656 44.5628 34.2443C44.8926 34.2217 45.2225 34.1722 45.5484 34.0372C46.2835 33.7328 46.8675 33.1487 47.172 32.4137C47.307 32.0877 47.3565 31.7578 47.379 31.428C47.4004 31.1147 47.4004 30.7362 47.4004 30.2976V30.2336C47.4004 29.795 47.4004 29.4165 47.379 29.1032C47.3565 28.7734 47.307 28.4435 47.172 28.1176C46.8675 27.3825 46.2835 26.7984 45.5484 26.494C45.2225 26.359 44.8926 26.3095 44.5628 26.287C44.2495 26.2656 43.871 26.2656 43.4324 26.2656Z" fill="#24C1DD"/>
</g>
<defs>
<clipPath id="clip0_1_3207">
<rect width="74" height="73" fill="white" transform="translate(0.400391 0.765625)"/>
</clipPath>
</defs>
</svg>
