<svg width="23" height="23" viewBox="0 0 23 23" fill="none" xmlns="http://www.w3.org/2000/svg">
<path d="M5.06817 6.95664C6.17587 6.95664 7.07384 6.05867 7.07384 4.95097C7.07384 3.84327 6.17587 2.94531 5.06817 2.94531C3.96047 2.94531 3.0625 3.84327 3.0625 4.95097C3.0625 6.05867 3.96047 6.95664 5.06817 6.95664Z" fill="black"/>
<path d="M8.96805 8.47617V19.6036H12.423V14.1008C12.423 12.6488 12.6961 11.2426 14.4965 11.2426C16.2721 11.2426 16.2941 12.9027 16.2941 14.1925V19.6045H19.7508V13.5022C19.7508 10.5047 19.1055 8.20117 15.602 8.20117C13.9199 8.20117 12.7924 9.12425 12.3313 9.99784H12.2846V8.47617H8.96805ZM3.33789 8.47617H6.7983V19.6036H3.33789V8.47617Z" fill="black"/>
</svg>
