<svg width="23" height="23" viewBox="0 0 23 23" fill="none" xmlns="http://www.w3.org/2000/svg">
<path d="M18.4976 7.68996C18.5095 7.85038 18.5095 8.00988 18.5095 8.16938C18.5095 13.0506 14.7943 18.6753 8.00448 18.6753C5.91265 18.6753 3.96932 18.0694 2.33398 17.0171C2.63098 17.051 2.91698 17.0629 3.2259 17.0629C4.88781 17.0669 6.50266 16.5112 7.81015 15.4853C7.03962 15.4714 6.29268 15.2172 5.67362 14.7582C5.05456 14.2992 4.59429 13.6583 4.35707 12.9251C4.58532 12.959 4.81448 12.9819 5.05465 12.9819C5.38557 12.9819 5.71832 12.9361 6.02723 12.8563C5.19101 12.6875 4.43908 12.2342 3.8993 11.5736C3.35952 10.913 3.0652 10.0858 3.0664 9.23271V9.18688C3.55865 9.46096 4.12973 9.63238 4.73473 9.65529C4.2279 9.3185 3.81231 8.86148 3.52504 8.32502C3.23778 7.78856 3.08777 7.18933 3.0884 6.5808C3.0884 5.89513 3.27082 5.2663 3.59073 4.71813C4.51853 5.8594 5.67569 6.79306 6.98729 7.45865C8.29889 8.12424 9.73566 8.50691 11.2046 8.58188C11.1478 8.30688 11.1129 8.0218 11.1129 7.7358C11.1127 7.25084 11.208 6.7706 11.3935 6.32252C11.579 5.87443 11.8509 5.4673 12.1939 5.12438C12.5368 4.78147 12.9439 4.50951 13.392 4.32403C13.8401 4.13856 14.3203 4.04322 14.8053 4.04346C15.8686 4.04346 16.8283 4.48896 17.503 5.20946C18.3296 5.04961 19.1223 4.74785 19.846 4.31755C19.5705 5.17079 18.9933 5.89431 18.2226 6.35255C18.9557 6.26893 19.6722 6.07613 20.3483 5.78055C19.8434 6.51672 19.2177 7.16228 18.4976 7.68996Z" fill="black"/>
</svg>
