<svg width="74" height="74" viewBox="0 0 74 74" fill="none" xmlns="http://www.w3.org/2000/svg">
<g clip-path="url(#clip0_1_3193)">
<path opacity="0.4" d="M57.1875 1.26562H16.1875C7.35094 1.26562 0.1875 8.42907 0.1875 17.2656V57.2656C0.1875 66.1022 7.35094 73.2656 16.1875 73.2656H57.1875C66.0241 73.2656 73.1875 66.1022 73.1875 57.2656V17.2656C73.1875 8.42907 66.0241 1.26562 57.1875 1.26562Z" fill="#DFC0FF"/>
<path d="M30.6875 27.2656C30.6875 26.7133 30.2398 26.2656 29.6875 26.2656C29.1352 26.2656 28.6875 26.7133 28.6875 27.2656V28.7656H27.1875C26.6352 28.7656 26.1875 29.2133 26.1875 29.7656C26.1875 30.3179 26.6352 30.7656 27.1875 30.7656H28.6875V32.2656C28.6875 32.8179 29.1352 33.2656 29.6875 33.2656C30.2398 33.2656 30.6875 32.8179 30.6875 32.2656V30.7656H32.1875C32.7398 30.7656 33.1875 30.3179 33.1875 29.7656C33.1875 29.2133 32.7398 28.7656 32.1875 28.7656H30.6875V27.2656Z" fill="#9F4BF3"/>
<path d="M30.6875 42.2656C30.6875 41.7133 30.2398 41.2656 29.6875 41.2656C29.1352 41.2656 28.6875 41.7133 28.6875 42.2656V43.7656H27.1875C26.6352 43.7656 26.1875 44.2133 26.1875 44.7656C26.1875 45.3179 26.6352 45.7656 27.1875 45.7656H28.6875V47.2656C28.6875 47.8179 29.1352 48.2656 29.6875 48.2656C30.2398 48.2656 30.6875 47.8179 30.6875 47.2656V45.7656H32.1875C32.7398 45.7656 33.1875 45.3179 33.1875 44.7656C33.1875 44.2133 32.7398 43.7656 32.1875 43.7656H30.6875V42.2656Z" fill="#9F4BF3"/>
<path d="M39.1208 27.9066C38.9723 27.5204 38.6013 27.2656 38.1875 27.2656C37.7737 27.2656 37.4027 27.5204 37.2542 27.9066L35.52 32.4155C35.2196 33.1965 35.1252 33.4216 34.9961 33.6032C34.8665 33.7854 34.7073 33.9446 34.5251 34.0742C34.3435 34.2033 34.1184 34.2977 33.3374 34.5981L28.8285 36.3323C28.4423 36.4808 28.1875 36.8518 28.1875 37.2656C28.1875 37.6794 28.4423 38.0504 28.8285 38.1989L33.3374 39.9331C34.1184 40.2335 34.3435 40.3279 34.5251 40.457C34.7073 40.5866 34.8665 40.7458 34.9961 40.928C35.1252 41.1096 35.2196 41.3347 35.52 42.1157L37.2542 46.6246C37.4027 47.0108 37.7737 47.2656 38.1875 47.2656C38.6013 47.2656 38.9723 47.0108 39.1208 46.6246L40.855 42.1157C41.1554 41.3347 41.2498 41.1096 41.3789 40.928C41.5085 40.7458 41.6677 40.5866 41.8499 40.457C42.0315 40.3279 42.2566 40.2335 43.0376 39.9331L47.5465 38.1989C47.9327 38.0504 48.1875 37.6794 48.1875 37.2656C48.1875 36.8518 47.9327 36.4808 47.5465 36.3323L43.0376 34.5981C42.2566 34.2977 42.0315 34.2033 41.8499 34.0742C41.6677 33.9446 41.5085 33.7854 41.3789 33.6032C41.2498 33.4216 41.1554 33.1965 40.855 32.4155L39.1208 27.9066Z" fill="#9F4BF3"/>
</g>
<defs>
<clipPath id="clip0_1_3193">
<rect width="73" height="73" fill="white" transform="translate(0.1875 0.765625)"/>
</clipPath>
</defs>
</svg>
