<svg width="25" height="25" viewBox="0 0 25 25" fill="none" xmlns="http://www.w3.org/2000/svg">
<path d="M14.244 3.60221L21.772 8.49542C22.038 8.66832 22.171 8.75477 22.2674 8.87009C22.3527 8.97217 22.4167 9.09024 22.4558 9.2174C22.5 9.36104 22.5 9.51967 22.5 9.83693V17.1687C22.5 18.8488 22.5 19.6889 22.173 20.3307C21.8854 20.8951 21.4265 21.3541 20.862 21.6417C20.2202 21.9687 19.3802 21.9687 17.7 21.9687H7.3C5.61984 21.9687 4.77976 21.9687 4.13803 21.6417C3.57354 21.3541 3.1146 20.8951 2.82698 20.3307C2.5 19.6889 2.5 18.8488 2.5 17.1687V9.83693C2.5 9.51967 2.5 9.36104 2.54417 9.2174C2.58327 9.09024 2.64735 8.97217 2.73265 8.87009C2.82901 8.75477 2.96201 8.66832 3.22802 8.49542L10.756 3.60221M14.244 3.60221C13.6127 3.1919 13.2971 2.98674 12.957 2.90692C12.6564 2.83636 12.3436 2.83636 12.043 2.90692C11.7029 2.98674 11.3873 3.1919 10.756 3.60221M14.244 3.60221L21.4681 8.29788C21.812 8.52143 21.984 8.6332 22.0435 8.77495C22.0956 8.89883 22.0956 9.03844 22.0435 9.16231C21.984 9.30406 21.812 9.41584 21.4681 9.63939L14.244 14.3351C13.6127 14.7454 13.2971 14.9506 12.957 15.0304C12.6564 15.1009 12.3436 15.1009 12.043 15.0304C11.7029 14.9506 11.3873 14.7454 10.756 14.3351L3.53193 9.63939C3.18801 9.41584 3.01604 9.30406 2.95649 9.16231C2.90444 9.03844 2.90444 8.89883 2.95649 8.77495C3.01604 8.6332 3.18801 8.52143 3.53193 8.29788L10.756 3.60221" stroke="black" stroke-width="2" stroke-linecap="round" stroke-linejoin="round"/>
</svg>
