<svg width="126" height="34" viewBox="0 0 126 34" fill="none" xmlns="http://www.w3.org/2000/svg">
<g clip-path="url(#clip0_1_3324)">
<path fill-rule="evenodd" clip-rule="evenodd" d="M104.534 8.3283C104.531 8.0444 104.587 7.76294 104.699 7.50134C104.81 7.23974 104.975 7.00356 105.183 6.8074C105.615 6.38048 106.133 6.16702 106.737 6.16702C107.029 6.16236 107.318 6.21676 107.588 6.32689C107.858 6.43702 108.102 6.60054 108.306 6.8074C108.738 7.22542 108.954 7.73634 108.954 8.34312C108.954 8.9499 108.738 9.46674 108.306 9.89366C108.106 10.1012 107.864 10.2655 107.597 10.3759C107.329 10.4863 107.042 10.5405 106.752 10.535C106.46 10.5398 106.17 10.4853 105.9 10.375C105.63 10.2647 105.386 10.1009 105.183 9.89366C104.972 9.69046 104.806 9.4467 104.694 9.17746C104.582 8.90821 104.528 8.6192 104.534 8.3283ZM108.615 29.939V13.6065H105.052V29.939H108.615Z" fill="black"/>
<path d="M98.2126 13.6235H101.793V29.956H98.2126V28.2464C96.6396 29.6991 94.9486 30.4254 93.1386 30.4254C90.8536 30.4254 88.9646 29.6092 87.4716 27.9776C85.9896 26.3114 85.2486 24.2322 85.2486 21.7398C85.2486 19.291 85.9896 17.2513 87.4716 15.6187C88.9536 13.9871 90.8086 13.1709 93.0366 13.1709C94.9596 13.1709 96.6856 13.9535 98.2126 15.5179V13.6235ZM88.8966 21.7398C88.8966 23.3042 89.3206 24.579 90.1686 25.5623C91.0396 26.5575 92.3926 27.2226 93.7156 27.2226C95.1296 27.2226 96.2726 26.5743 97.1436 25.6127C98.0136 24.6176 98.4496 23.3546 98.4496 21.8229C98.4496 20.2911 98.0146 19.0281 97.1436 18.034C96.2726 17.0605 95.1406 16.4063 93.7496 16.4063C92.4376 16.4063 91.0856 17.0665 90.2026 18.0508C89.3326 19.0449 88.8966 20.2743 88.8966 21.7398ZM74.5236 13.6235H78.1716V15.0831C78.8736 14.3567 79.4956 13.8587 80.0386 13.5909C80.5926 13.3112 81.2486 13.1718 82.0066 13.1718C83.0136 13.1718 84.0656 13.496 85.1626 14.1443L83.4146 17.5981C82.6906 17.0843 81.9846 16.8273 81.2946 16.8273C79.2126 16.8273 78.1716 18.3808 78.1716 21.4888V29.957H74.5236V13.6235ZM111.672 13.6156H115.252V15.1246C116.587 13.8162 118.091 13.162 119.765 13.162C121.688 13.162 123.187 13.7608 124.262 14.9566C125.189 15.9745 125.653 17.6347 125.653 19.9373V29.9481H121.818V20.8257C121.818 19.2159 121.592 18.1031 121.14 17.4885C120.698 16.8629 119.895 16.5496 118.73 16.5496C117.463 16.5496 116.564 16.9637 116.032 17.7909C115.512 18.6062 115.252 20.0322 115.252 22.0669V29.9481H111.672V13.6156ZM72.0796 16.6425H61.5086V20.1468H67.7866C67.6056 21.9691 66.7396 23.5345 65.1896 24.8429C63.6396 26.1395 61.8926 26.7877 59.9466 26.7877C57.6616 26.7877 55.5406 25.9211 53.5836 24.1887C51.4906 22.3209 50.4446 19.9462 50.4446 17.0615C50.4446 14.2668 51.3846 11.9425 53.2616 10.0856C55.1396 8.19707 57.4636 7.25231 60.2356 7.25231C62.6356 7.25231 64.7516 8.10615 66.5846 9.81382L69.2726 7.15646C68.1626 6.14253 67.0386 5.35787 65.9026 4.80446C64.1266 3.97631 62.2146 3.56323 60.1676 3.56323C56.3556 3.56323 53.1206 4.87759 50.4616 7.50333C47.8036 10.1192 46.4746 13.3053 46.4746 17.0615C46.4746 20.7397 47.7806 23.8922 50.3946 26.5189C53.0066 29.1348 56.1466 30.4422 59.8116 30.4422C63.5666 30.4422 66.6616 29.0903 69.0926 26.3855C70.1676 25.1779 70.9306 23.8813 71.3826 22.4949C71.8476 20.9967 72.0796 19.2752 72.0796 17.3303V16.6425Z" fill="black"/>
<path d="M14.798 0.598315C16.1739 0.070093 17.7001 0.070093 19.076 0.598315C20.622 1.19224 22.147 1.88302 23.645 2.67163C23.956 2.83568 23.908 3.29126 23.575 3.40589C15.383 6.23916 9.508 13.9454 9.508 23.0085C9.508 25.8309 10.078 28.5229 11.111 30.9767C11.257 31.3225 10.89 31.6763 10.553 31.5024C8.1035 30.2406 5.78507 28.7445 3.631 27.0356C2.48012 26.1221 1.71703 24.8159 1.492 23.3742C1.16361 21.266 0.999128 19.136 1 17.003C1 14.8358 1.168 12.7082 1.492 10.6319C1.71728 9.19 2.48074 7.88377 3.632 6.97046C5.31486 5.63522 7.09875 4.42934 8.968 3.3634C10.837 2.29591 12.7861 1.37152 14.798 0.598315Z" fill="#00B96C"/>
<path d="M30.2427 6.97159C30.0507 6.81906 29.8573 6.66818 29.6627 6.51898C29.4585 6.36081 29.2228 6.24695 28.9711 6.1848C28.7193 6.12265 28.4572 6.11361 28.2017 6.15827C19.3017 7.76416 12.5547 15.4665 12.5547 24.7252C12.5547 27.603 13.2057 30.3305 14.3717 32.7714C14.5517 33.149 14.8857 33.4316 15.2847 33.5699C16.5321 33.9291 17.8646 33.8718 19.0757 33.4069C21.0587 32.6459 23.0067 31.7269 24.9057 30.6428C26.7753 29.5769 28.5595 28.371 30.2427 27.0357C31.3934 26.1225 32.1564 24.8167 32.3817 23.3753C32.7057 21.298 32.8737 19.1704 32.8737 17.0042C32.8737 14.837 32.7057 12.7093 32.3817 10.633C32.1567 9.19128 31.3936 7.88507 30.2427 6.97159Z" fill="#00B96C"/>
</g>
<defs>
<clipPath id="clip0_1_3324">
<rect width="125" height="33.6" fill="white" transform="translate(1 0.203125)"/>
</clipPath>
</defs>
</svg>
