<svg width="75" height="74" viewBox="0 0 75 74" fill="none" xmlns="http://www.w3.org/2000/svg">
<g clip-path="url(#clip0_1_3219)">
<path opacity="0.4" d="M57.9453 1.26562H16.9453C8.10876 1.26562 0.945312 8.42907 0.945312 17.2656V57.2656C0.945312 66.1022 8.10876 73.2656 16.9453 73.2656H57.9453C66.7819 73.2656 73.9453 66.1022 73.9453 57.2656V17.2656C73.9453 8.42907 66.7819 1.26562 57.9453 1.26562Z" fill="#FFD0A5"/>
<path fill-rule="evenodd" clip-rule="evenodd" d="M41.8527 27.2656H33.3701C32.5651 27.2656 31.9008 27.2656 31.3596 27.3098C30.7975 27.3557 30.2808 27.4543 29.7954 27.7016C29.0428 28.0851 28.4309 28.697 28.0474 29.4496C27.8001 29.935 27.7015 30.4517 27.6556 31.0138C27.6114 31.555 27.6114 32.2193 27.6114 33.0243V39.4032C27.6109 40.1986 27.6106 40.7892 27.7477 41.3009C28.1176 42.6812 29.1958 43.7594 30.5761 44.1293C30.8836 44.2117 31.2196 44.2445 31.6114 44.2574V45.6366C31.6114 45.8718 31.6113 46.1116 31.6292 46.3081C31.6462 46.4961 31.6914 46.8508 31.9391 47.1611C32.2241 47.5181 32.6562 47.7258 33.113 47.7253C33.51 47.7249 33.8152 47.5386 33.9727 47.4345C34.1373 47.3256 34.3245 47.1758 34.5082 47.0288L36.9213 45.0983C37.4399 44.6834 37.5939 44.5663 37.7538 44.4846C37.9143 44.4026 38.0851 44.3427 38.2617 44.3064C38.4377 44.2703 38.631 44.2656 39.2952 44.2656H41.8527C42.6577 44.2656 43.322 44.2656 43.8632 44.2214C44.4253 44.1755 44.942 44.0769 45.4274 43.8296C46.18 43.4461 46.7919 42.8342 47.1754 42.0816C47.4227 41.5962 47.5213 41.0795 47.5672 40.5174C47.6114 39.9762 47.6114 39.3119 47.6114 38.5069V33.0243C47.6114 32.2193 47.6114 31.555 47.5672 31.0138C47.5213 30.4517 47.4227 29.935 47.1754 29.4496C46.7919 28.697 46.18 28.0851 45.4274 27.7016C44.942 27.4543 44.4253 27.3557 43.8632 27.3098C43.322 27.2656 42.6577 27.2656 41.8527 27.2656ZM41.8184 33.9727C42.2089 33.5822 42.2089 32.949 41.8184 32.5585C41.4279 32.168 40.7947 32.168 40.4042 32.5585L36.6113 36.3514L35.3184 35.0585C34.9279 34.668 34.2947 34.668 33.9042 35.0585C33.5137 35.449 33.5137 36.0822 33.9042 36.4727L35.9042 38.4727C36.2947 38.8632 36.9279 38.8632 37.3184 38.4727L41.8184 33.9727Z" fill="#E37E00"/>
</g>
<defs>
<clipPath id="clip0_1_3219">
<rect width="74" height="73" fill="white" transform="translate(0.611328 0.765625)"/>
</clipPath>
</defs>
</svg>
