<svg width="32" height="34" viewBox="0 0 32 34" fill="none" xmlns="http://www.w3.org/2000/svg">
<path d="M13.798 0.598315C15.1739 0.070093 16.7001 0.070093 18.076 0.598315C19.622 1.19224 21.147 1.88302 22.645 2.67163C22.956 2.83568 22.908 3.29126 22.575 3.40589C14.383 6.23916 8.508 13.9454 8.508 23.0085C8.508 25.8309 9.078 28.5229 10.111 30.9767C10.257 31.3225 9.89 31.6763 9.553 31.5024C7.1035 30.2406 4.78507 28.7445 2.631 27.0356C1.48012 26.1221 0.717026 24.8159 0.492004 23.3742C0.163609 21.266 -0.000872115 19.136 3.47733e-06 17.003C3.47733e-06 14.8358 0.168003 12.7082 0.492004 10.6319C0.717284 9.19 1.48074 7.88377 2.632 6.97046C4.31486 5.63522 6.09875 4.42934 7.968 3.3634C9.83703 2.29591 11.7861 1.37152 13.798 0.598315Z" fill="#00B96C"/>
<path d="M29.2427 6.97159C29.0507 6.81906 28.8573 6.66818 28.6627 6.51898C28.4585 6.36081 28.2228 6.24695 27.9711 6.1848C27.7193 6.12265 27.4572 6.11361 27.2017 6.15827C18.3017 7.76416 11.5547 15.4665 11.5547 24.7252C11.5547 27.603 12.2057 30.3305 13.3717 32.7714C13.5517 33.149 13.8857 33.4316 14.2847 33.5699C15.5321 33.9291 16.8646 33.8718 18.0757 33.4069C20.0587 32.6459 22.0067 31.7269 23.9057 30.6428C25.7753 29.5769 27.5595 28.371 29.2427 27.0357C30.3934 26.1225 31.1564 24.8167 31.3817 23.3753C31.7057 21.298 31.8737 19.1704 31.8737 17.0042C31.8737 14.837 31.7057 12.7093 31.3817 10.633C31.1567 9.19128 30.3936 7.88507 29.2427 6.97159Z" fill="#00B96C"/>
</svg>
